<?xml version="1.0" encoding="UTF-8" standalone="no"?>
<!-- Created with Inkscape (http://www.inkscape.org/) -->

<svg
   xmlns:dc="http://purl.org/dc/elements/1.1/"
   xmlns:cc="http://creativecommons.org/ns#"
   xmlns:rdf="http://www.w3.org/1999/02/22-rdf-syntax-ns#"
   xmlns:svg="http://www.w3.org/2000/svg"
   xmlns="http://www.w3.org/2000/svg"
   xmlns:sodipodi="http://sodipodi.sourceforge.net/DTD/sodipodi-0.dtd"
   xmlns:inkscape="http://www.inkscape.org/namespaces/inkscape"
   width="46.299999"
   height="64.099998"
   id="svg3724"
   version="1.1"
   inkscape:version="0.48.3.1 r9886"
   sodipodi:docname="fig8.svg">
  <defs
     id="defs3726">
    <clipPath
       clipPathUnits="userSpaceOnUse"
       id="clipPath50">
      <path
         inkscape:connector-curvature="0"
         d="m 773.91,6801.85 0,-1950 4490,0 0,1950 -4490,0 z"
         id="path52" />
    </clipPath>
    <clipPath
       clipPathUnits="userSpaceOnUse"
       id="clipPath100">
      <path
         inkscape:connector-curvature="0"
         d="m 1237.59,6811.69 0,-1645.83 4261.97,0 0,1645.83 -4261.97,0 z"
         id="path102" />
    </clipPath>
  </defs>
  <sodipodi:namedview
     id="base"
     pagecolor="#ffffff"
     bordercolor="#666666"
     borderopacity="1.0"
     inkscape:pageopacity="0.0"
     inkscape:pageshadow="2"
     inkscape:zoom="1.4"
     inkscape:cx="219.84353"
     inkscape:cy="170.18077"
     inkscape:document-units="px"
     inkscape:current-layer="layer2"
     showgrid="false"
     inkscape:window-width="1366"
     inkscape:window-height="681"
     inkscape:window-x="0"
     inkscape:window-y="27"
     inkscape:window-maximized="1"
     units="px" />
  <metadata
     id="metadata3729">
    <rdf:RDF>
      <cc:Work
         rdf:about="">
        <dc:format>image/svg+xml</dc:format>
        <dc:type
           rdf:resource="http://purl.org/dc/dcmitype/StillImage" />
      </cc:Work>
    </rdf:RDF>
  </metadata>
  <g
     inkscape:label="Layer 1"
     inkscape:groupmode="layer"
     id="layer1"
     transform="translate(0,-988.26088)" />
  <g
     inkscape:groupmode="layer"
     id="layer2"
     inkscape:label="Layer"
     transform="translate(0,-988.26088)">
    <g
       id="g3128"
       transform="translate(-395,120.71429)">
      <a
         id="a4587-3"
         transform="matrix(0.125,0,0,-0.125,15.901392,1280.9902)">
        <path
           d="m 3077.8747,2902.9124 289.16,0 0,349.32 -289.16,0 0,-349.32 z"
           style="fill:#757980;fill-opacity:1;fill-rule:evenodd;stroke:none"
           id="path104-1-2"
           inkscape:connector-curvature="0" />
      </a>
      <path
         inkscape:connector-curvature="0"
         id="path106-9-2"
         style="fill:none;stroke:none"
         d="m 400.63573,918.12611 36.145,0 0,-43.665 -36.145,0 0,43.665 z" />
      <path
         inkscape:connector-curvature="0"
         id="path108-9-3"
         style="fill:#050301;fill-opacity:1;fill-rule:evenodd;stroke:none"
         d="m 403.86323,895.96111 29.69,0 0,-16.833 -29.69,0 0,16.833 z" />
      <path
         inkscape:connector-curvature="0"
         id="path110-7-8-2"
         style="fill:none;stroke:none"
         d="m 403.86323,895.96111 29.69,0 0,-16.833 -29.69,0 0,16.833 z" />
      <g
         transform="matrix(1.25,0,0,-1.25,84.048222,1688.9049)"
         id="g112-2-5-1">
        <text
           id="text114-5-4-5"
           transform="matrix(0.995529,0,0,-1,257.621,637.198)">
          <tspan
             id="tspan116-6-9-8"
             sodipodi:role="line"
             y="0"
             x="0 4.4939117 6.7398987 11.233026 15.728114"
             style="font-size:8.22931957px;font-variant:normal;font-weight:bold;writing-mode:lr-tb;fill:#ffffff;fill-opacity:1;fill-rule:nonzero;stroke:none;font-family:Arial;-inkscape-font-specification:Arial-BoldMT">0.000</tspan>
        </text>
      </g>
      <path
         inkscape:connector-curvature="0"
         id="path118-0-6-1"
         style="fill:#050301;fill-opacity:1;fill-rule:evenodd;stroke:none"
         d="m 408.27323,913.88736 c 0,-1.4075 1.035,-2.535 2.32875,-2.535 1.29375,0 2.32875,1.1275 2.32875,2.535 0,1.4075 -1.035,2.53375 -2.32875,2.53375 -1.29375,0 -2.32875,-1.12625 -2.32875,-2.53375 l 0,0" />
      <path
         inkscape:connector-curvature="0"
         id="path120-4-2-0"
         style="fill:none;stroke:none"
         d="m 408.27323,913.88736 c 0,-1.4075 1.035,-2.535 2.32875,-2.535 1.29375,0 2.32875,1.1275 2.32875,2.535 0,1.4075 -1.035,2.53375 -2.32875,2.53375 -1.29375,0 -2.32875,-1.12625 -2.32875,-2.53375 l 0,0 z" />
      <path
         inkscape:connector-curvature="0"
         id="path122-7-9-4"
         style="fill:#050301;fill-opacity:1;fill-rule:evenodd;stroke:none"
         d="m 425.03573,913.88736 c 0,-1.4075 1.035,-2.535 2.32875,-2.535 1.29375,0 2.32875,1.1275 2.32875,2.535 0,1.4075 -1.035,2.53375 -2.32875,2.53375 -1.29375,0 -2.32875,-1.12625 -2.32875,-2.53375 l 0,0" />
      <path
         inkscape:connector-curvature="0"
         id="path124-9-3-7"
         style="fill:none;stroke:none"
         d="m 425.03573,913.88736 c 0,-1.4075 1.035,-2.535 2.32875,-2.535 1.29375,0 2.32875,1.1275 2.32875,2.535 0,1.4075 -1.035,2.53375 -2.32875,2.53375 -1.29375,0 -2.32875,-1.12625 -2.32875,-2.53375 l 0,0 z" />
      <path
         inkscape:connector-curvature="0"
         id="path126-0-1-5"
         style="fill:none;stroke:#050301;stroke-width:1.25;stroke-linecap:square;stroke-linejoin:miter;stroke-miterlimit:10;stroke-opacity:1;stroke-dasharray:none"
         d="m 411.06823,902.22861 0,6.0825" />
      <path
         inkscape:connector-curvature="0"
         id="path128-5-4-3"
         style="fill:none;stroke:#050301;stroke-width:1.25;stroke-linecap:square;stroke-linejoin:miter;stroke-miterlimit:10;stroke-opacity:1;stroke-dasharray:none"
         d="m 408.27323,905.27111 5.5875,0" />
      <a
         id="a3109">
        <path
           d="m 425.03573,905.27111 5.5875,0"
           style="fill:none;stroke:#050301;stroke-width:1.25;stroke-linecap:square;stroke-linejoin:miter;stroke-miterlimit:10;stroke-opacity:1;stroke-dasharray:none"
           id="path130-3-9-3"
           inkscape:connector-curvature="0" />
      </a>
      <path
         inkscape:connector-curvature="0"
         id="path270"
         style="fill:none;stroke:#050301;stroke-width:1.33376253;stroke-linecap:square;stroke-linejoin:miter;stroke-miterlimit:10;stroke-opacity:1;stroke-dasharray:none"
         d="m 410.42971,916.10287 0,9.52222" />
      <path
         inkscape:connector-curvature="0"
         id="path270-1"
         style="fill:none;stroke:#050301;stroke-width:1.25;stroke-linecap:square;stroke-linejoin:miter;stroke-miterlimit:10;stroke-opacity:1;stroke-dasharray:none"
         d="m 427.24717,916.37118 0,8.36375" />
    </g>
  </g>
</svg>
